<?xml version="1.0" encoding="UTF-8" standalone="no"?>
<svg
   xmlns:dc="http://purl.org/dc/elements/1.1/"
   xmlns:cc="http://creativecommons.org/ns#"
   xmlns:rdf="http://www.w3.org/1999/02/22-rdf-syntax-ns#"
   xmlns:svg="http://www.w3.org/2000/svg"
   xmlns="http://www.w3.org/2000/svg"
   xmlns:sodipodi="http://sodipodi.sourceforge.net/DTD/sodipodi-0.dtd"
   xmlns:inkscape="http://www.inkscape.org/namespaces/inkscape"
   height="24"
   viewBox="0 0 24 24"
   width="24"
   version="1.1"
   id="svg6"
   sodipodi:docname="assignment_paid-24px.svg"
   inkscape:version="0.92.4 (5da689c313, 2019-01-14)">
  <metadata
     id="metadata12">
    <rdf:RDF>
      <cc:Work
         rdf:about="">
        <dc:format>image/svg+xml</dc:format>
        <dc:type
           rdf:resource="http://purl.org/dc/dcmitype/StillImage" />
        <dc:title></dc:title>
      </cc:Work>
    </rdf:RDF>
  </metadata>
  <defs
     id="defs10" />
  <sodipodi:namedview
     pagecolor="#ffffff"
     bordercolor="#666666"
     borderopacity="1"
     objecttolerance="10"
     gridtolerance="10"
     guidetolerance="10"
     inkscape:pageopacity="0"
     inkscape:pageshadow="2"
     inkscape:window-width="1920"
     inkscape:window-height="1017"
     id="namedview8"
     showgrid="false"
     inkscape:zoom="27.812867"
     inkscape:cx="5.9305353"
     inkscape:cy="12.161651"
     inkscape:window-x="-8"
     inkscape:window-y="-8"
     inkscape:window-maximized="1"
     inkscape:current-layer="svg6" />
  <path
     d="M0 0h24v24H0z"
     id="path2"
     fill="none" />
  <path
     clip-path="none"
     d="M 12 1 C 10.7 1 9.5996875 1.84 9.1796875 3 L 5 3 C 3.9 3 3 3.9 3 5 L 3 19 C 3 20.1 3.9 21 5 21 L 19 21 C 20.1 21 21 20.1 21 19 L 21 5 C 21 3.9 20.1 3 19 3 L 14.820312 3 C 14.400313 1.84 13.3 1 12 1 z M 12 3 C 12.55 3 13 3.45 13 4 C 13 4.55 12.55 5 12 5 C 11.45 5 11 4.55 11 4 C 11 3.45 11.45 3 12 3 z M 13.820312 6.5410156 C 15.215255 6.5410156 16.494653 7.0682556 17.458984 7.9355469 L 16.384766 9.0097656 C 15.69336 8.4153978 14.796774 8.0585938 13.820312 8.0585938 C 12.304069 8.0585938 10.981189 8.9181729 10.326172 10.179688 L 13.820312 10.179688 L 13.820312 11.392578 L 9.9257812 11.392578 C 9.8954513 11.592721 9.8769531 11.79379 9.8769531 12 C 9.8769531 12.206208 9.8954613 12.407277 9.9257812 12.607422 L 13.820312 12.607422 L 13.820312 13.820312 L 10.326172 13.820312 C 10.981189 15.081826 12.298005 15.941406 13.820312 15.941406 C 14.802838 15.941406 15.693565 15.584601 16.378906 14.990234 L 17.458984 16.064453 C 16.494653 16.931743 15.221321 17.458984 13.820312 17.458984 C 11.442844 17.458984 9.4278383 15.936988 8.6757812 13.820312 L 6.5410156 13.820312 L 6.5410156 12.607422 L 8.3964844 12.607422 C 8.3722244 12.407277 8.3613281 12.206208 8.3613281 12 C 8.3613281 11.79379 8.3722244 11.592721 8.3964844 11.392578 L 6.5410156 11.392578 L 6.5410156 10.179688 L 8.6757812 10.179688 C 9.4278383 8.0630125 11.442844 6.5410156 13.820312 6.5410156 z "
     id="path4" />
  <g
     id="g856"
     transform="translate(-16.225462,-0.17977291)">
    <path
       id="path842"
       d="M 0,0 H 24 V 24 H 0 Z"
       inkscape:connector-curvature="0"
       style="fill:none" />
  </g>
</svg>
